<svg width="20" height="20" viewBox="0 0 20 20" fill="none" xmlns="http://www.w3.org/2000/svg">
<path d="M10 3.71426C11.2332 2.36896 12.4595 1.66663 14.1667 1.66663C17.113 1.66663 19.1667 3.91264 19.1667 6.8636C19.1667 10.4585 16.3897 14.1025 10.9474 17.8626C10.3773 18.2565 9.62282 18.2565 9.05266 17.8626C3.61039 14.1025 0.833374 10.4585 0.833374 6.8636C0.833374 3.91264 2.8871 1.66663 5.83337 1.66663C7.54058 1.66663 8.76688 2.36896 10 3.71426ZM9.3484 5.51939C8.16668 4.0369 7.19322 3.33329 5.83337 3.33329C3.84252 3.33329 2.50004 4.80147 2.50004 6.8636C2.50004 9.77952 4.96279 13.0111 10 16.4914C15.0373 13.0111 17.5 9.77952 17.5 6.8636C17.5 4.80147 16.1576 3.33329 14.1667 3.33329C12.8069 3.33329 11.8334 4.0369 10.6517 5.51939C10.3181 5.93793 9.68202 5.93793 9.3484 5.51939Z" fill="white"/>
</svg>
