<svg width="35" height="35" viewBox="0 0 35 35" fill="none" xmlns="http://www.w3.org/2000/svg">
<path d="M31.7997 14.6439H30.625V14.5834H17.5V20.4167H25.7418C24.5394 23.8124 21.3084 26.25 17.5 26.25C12.6678 26.25 8.74999 22.3322 8.74999 17.5C8.74999 12.6678 12.6678 8.75002 17.5 8.75002C19.7305 8.75002 21.7598 9.59148 23.3049 10.966L27.4298 6.84106C24.8252 4.41367 21.3412 2.91669 17.5 2.91669C9.44634 2.91669 2.91666 9.44637 2.91666 17.5C2.91666 25.5537 9.44634 32.0834 17.5 32.0834C25.5536 32.0834 32.0833 25.5537 32.0833 17.5C32.0833 16.5222 31.9827 15.5677 31.7997 14.6439Z" fill="#FFC107"/>
<path d="M4.59811 10.7122L9.38947 14.2261C10.6859 11.0163 13.8257 8.75002 17.5 8.75002C19.7305 8.75002 21.7598 9.59148 23.3049 10.966L27.4298 6.84106C24.8252 4.41367 21.3412 2.91669 17.5 2.91669C11.8985 2.91669 7.04082 6.07908 4.59811 10.7122Z" fill="#FF3D00"/>
<path d="M17.5 32.0833C21.2669 32.0833 24.6896 30.6418 27.2774 28.2975L22.7638 24.4781C21.2505 25.629 19.4013 26.2515 17.5 26.25C13.7069 26.25 10.4861 23.8314 9.27281 20.4561L4.51718 24.1201C6.93072 28.8429 11.8322 32.0833 17.5 32.0833Z" fill="#4CAF50"/>
<path d="M31.7997 14.6438H30.625V14.5833H17.5V20.4166H25.7418C25.1666 22.0328 24.1306 23.445 22.7617 24.4788L22.7639 24.4774L27.2774 28.2968C26.958 28.587 32.0833 24.7916 32.0833 17.5C32.0833 16.5222 31.9827 15.5677 31.7997 14.6438Z" fill="#1976D2"/>
</svg>
