<svg width="22" height="22" viewBox="0 0 22 22" fill="none" xmlns="http://www.w3.org/2000/svg">
<path fill-rule="evenodd" clip-rule="evenodd" d="M4.09243 14.1758C4.95197 13.3162 6.11776 12.8333 7.33333 12.8333H14.6667C15.8822 12.8333 17.048 13.3162 17.9076 14.1758C18.7671 15.0353 19.25 16.2011 19.25 17.4167V19.25C19.25 19.7563 18.8396 20.1667 18.3333 20.1667C17.8271 20.1667 17.4167 19.7563 17.4167 19.25V17.4167C17.4167 16.6873 17.1269 15.9879 16.6112 15.4721C16.0955 14.9564 15.396 14.6667 14.6667 14.6667H7.33333C6.60399 14.6667 5.90452 14.9564 5.38879 15.4721C4.87306 15.9879 4.58333 16.6873 4.58333 17.4167V19.25C4.58333 19.7563 4.17293 20.1667 3.66667 20.1667C3.16041 20.1667 2.75 19.7563 2.75 19.25V17.4167C2.75 16.2011 3.23289 15.0353 4.09243 14.1758Z" fill="white"/>
<path fill-rule="evenodd" clip-rule="evenodd" d="M2.75 19.14C2.75 18.5325 3.24249 18.04 3.85 18.04H18.15C18.7575 18.04 19.25 18.5325 19.25 19.14C19.25 19.7475 18.7575 20.24 18.15 20.24H3.85C3.24249 20.24 2.75 19.7475 2.75 19.14Z" fill="white"/>
<path fill-rule="evenodd" clip-rule="evenodd" d="M11 3.66668C9.48118 3.66668 8.24997 4.89789 8.24997 6.41668C8.24997 7.93546 9.48118 9.16668 11 9.16668C12.5187 9.16668 13.75 7.93546 13.75 6.41668C13.75 4.89789 12.5187 3.66668 11 3.66668ZM6.41663 6.41668C6.41663 3.88537 8.46866 1.83334 11 1.83334C13.5313 1.83334 15.5833 3.88537 15.5833 6.41668C15.5833 8.94798 13.5313 11 11 11C8.46866 11 6.41663 8.94798 6.41663 6.41668Z" fill="white"/>
</svg>
