<svg width="22" height="22" viewBox="0 0 22 22" fill="none" xmlns="http://www.w3.org/2000/svg">
<path fill-rule="evenodd" clip-rule="evenodd" d="M10.4372 1.10975C10.7683 0.852292 11.2318 0.852292 11.5628 1.10975L19.8128 7.52642C20.0361 7.70008 20.1667 7.96711 20.1667 8.24999V18.3333C20.1667 19.0627 19.877 19.7621 19.3612 20.2779C18.8455 20.7936 18.146 21.0833 17.4167 21.0833H4.58336C3.85401 21.0833 3.15454 20.7936 2.63882 20.2779C2.12309 19.7621 1.83336 19.0627 1.83336 18.3333V8.24999C1.83336 7.96711 1.96396 7.70008 2.18725 7.52642L10.4372 1.10975ZM3.66669 8.69832V18.3333C3.66669 18.5764 3.76327 18.8096 3.93518 18.9815C4.10709 19.1534 4.34024 19.25 4.58336 19.25H17.4167C17.6598 19.25 17.893 19.1534 18.0649 18.9815C18.2368 18.8096 18.3334 18.5764 18.3334 18.3333V8.69832L11 2.99461L3.66669 8.69832Z" fill="white"/>
<path fill-rule="evenodd" clip-rule="evenodd" d="M12.5415 11.8462C14.9103 10.5723 17.6768 10.6236 19.4886 11.0262L19.0114 13.1738C17.5232 12.8431 15.3397 12.8393 13.5835 13.7838C11.9318 14.6721 10.45 16.5094 10.45 20.35H8.25C8.25 15.8306 10.0682 13.1763 12.5415 11.8462Z" fill="white"/>
</svg>
