<svg width="24" height="20" viewBox="0 0 24 20" fill="none" xmlns="http://www.w3.org/2000/svg">
<path d="M10.73 3.073C11.1516 3.0241 11.5756 2.99973 12 3C16.664 3 20.4 5.903 22 10C21.6127 10.9966 21.0894 11.9348 20.445 12.788M6.52 4.519C4.48 5.764 2.9 7.693 2 10C3.6 14.097 7.336 17 12 17C13.9321 17.0102 15.8292 16.484 17.48 15.48M9.88 7.88C9.6014 8.1586 9.3804 8.48935 9.22963 8.85335C9.07885 9.21736 9.00125 9.6075 9.00125 10.0015C9.00125 10.3955 9.07885 10.7856 9.22963 11.1496C9.3804 11.5137 9.6014 11.8444 9.88 12.123C10.1586 12.4016 10.4893 12.6226 10.8534 12.7734C11.2174 12.9242 11.6075 13.0018 12.0015 13.0018C12.3955 13.0018 12.7856 12.9242 13.1496 12.7734C13.5137 12.6226 13.8444 12.4016 14.123 12.123" stroke="black" stroke-opacity="0.5" stroke-width="2.5" stroke-linecap="round" stroke-linejoin="round"/>
<path d="M4 2L20 18" stroke="black" stroke-opacity="0.5" stroke-width="2.5" stroke-linecap="round"/>
</svg>
