<svg width="28" height="20" viewBox="0 0 28 20" fill="none" xmlns="http://www.w3.org/2000/svg">
<path d="M27.5 17.8816C27.5 18.6378 26.8867 19.2497 26.1319 19.2497H15.1181C14.7553 19.2497 14.4073 19.1055 14.1507 18.849C13.8941 18.5924 13.75 18.2444 13.75 17.8816C13.75 17.5187 13.8941 17.1707 14.1507 16.9141C14.4073 16.6576 14.7553 16.5134 15.1181 16.5134H26.1319C26.8881 16.5134 27.5 17.1253 27.5 17.8816Z" fill="#93A3B4"/>
<path d="M27.5 9.62484C27.5 10.3811 26.8867 10.993 26.1319 10.993H1.36812C1.00528 10.993 0.657288 10.8488 0.400715 10.5922C0.144141 10.3357 0 9.98769 0 9.62484C0 9.26199 0.144141 8.914 0.400715 8.65743C0.657288 8.40085 1.00528 8.25671 1.36812 8.25671H26.1319C26.8881 8.25671 27.5 8.86996 27.5 9.62484Z" fill="#93A3B4"/>
<path d="M26.1319 2.73625C26.4947 2.73625 26.8427 2.59211 27.0993 2.33554C27.3559 2.07896 27.5 1.73097 27.5 1.36812C27.5 1.00528 27.3559 0.657287 27.0993 0.400714C26.8427 0.144141 26.4947 1.08138e-08 26.1319 0H9.61812C9.43846 -5.35443e-09 9.26056 0.0353876 9.09457 0.104142C8.92858 0.172897 8.77776 0.273672 8.65071 0.400714C8.52367 0.527756 8.4229 0.678578 8.35414 0.844566C8.28539 1.01056 8.25 1.18846 8.25 1.36812C8.25 1.54779 8.28539 1.7257 8.35414 1.89168C8.4229 2.05767 8.52367 2.20849 8.65071 2.33554C8.77776 2.46258 8.92858 2.56335 9.09457 2.63211C9.26056 2.70086 9.43846 2.73625 9.61812 2.73625H26.1319Z" fill="#93A3B4"/>
</svg>
