<svg width="55" height="52" viewBox="0 0 55 52" fill="none" xmlns="http://www.w3.org/2000/svg">
<rect x="0.5" y="0.499931" width="54" height="51.0001" rx="25.5001" stroke="#737373"/>
<path d="M33.5 13.9999C32.3357 13.9999 31.1873 14.271 30.1459 14.7917C29.1045 15.3124 28.1986 16.0685 27.5 16.9999C26.5555 15.7406 25.2388 14.8104 23.7363 14.3411C22.2337 13.8717 20.6216 13.887 19.1283 14.3848C17.635 14.8826 16.3361 15.8376 15.4157 17.1146C14.4953 18.3916 14 19.9258 14 21.4999C14 30.4874 26.4875 37.5749 27.0125 37.8749C27.1613 37.9585 27.3294 38.0016 27.5 37.9999C27.6708 38.0028 27.8392 37.9597 27.9875 37.8749C30.2871 36.5306 32.444 34.9558 34.425 33.1749C38.7875 29.2499 41 25.3249 41 21.4999C41 19.5108 40.2098 17.6032 38.8033 16.1966C37.3968 14.7901 35.4891 13.9999 33.5 13.9999Z" fill="black"/>
</svg>
