<svg width="16" height="16" viewBox="0 0 16 16" fill="none" xmlns="http://www.w3.org/2000/svg">
<path d="M10.6667 13.6666H12C12.7364 13.6666 13.3334 13.0697 13.3334 12.3333V6.60522C13.3334 6.18022 13.1308 5.78069 12.7879 5.52956L8.78791 2.59974C8.31885 2.25617 7.68123 2.25617 7.21217 2.59974L3.21217 5.52956C2.86931 5.78069 2.66671 6.18022 2.66671 6.60522V12.3333C2.66671 13.0697 3.26366 13.6666 4.00004 13.6666H5.33337V8.33331C5.33337 7.96512 5.63185 7.66664 6.00004 7.66664H10C10.3682 7.66664 10.6667 7.96512 10.6667 8.33331V13.6666ZM9.33337 13.6666V8.99997H6.66671V13.6666H9.33337ZM2.4243 4.4539L6.4243 1.52408C7.36243 0.836944 8.63765 0.836944 9.57578 1.52408L13.5758 4.4539C14.2615 4.95616 14.6667 5.75523 14.6667 6.60522V12.3333C14.6667 13.8061 13.4728 15 12 15H4.00004C2.52728 15 1.33337 13.8061 1.33337 12.3333V6.60522C1.33337 5.75523 1.73858 4.95616 2.4243 4.4539Z" fill="white"/>
</svg>
