<svg width="32" height="32" viewBox="0 0 32 32" fill="none" xmlns="http://www.w3.org/2000/svg">
<path d="M27.35 12.9625L17.35 3.87501C16.9813 3.53771 16.4997 3.35065 16 3.35065C15.5003 3.35065 15.0187 3.53771 14.65 3.87501L4.65002 12.9625C4.44528 13.1498 4.28175 13.3777 4.16985 13.6316C4.05795 13.8856 4.00011 14.16 4.00002 14.4375V25.95C3.99189 26.4542 4.16991 26.9438 4.50002 27.325C4.68738 27.5381 4.91819 27.7085 5.17692 27.825C5.43565 27.9414 5.71631 28.0011 6.00002 28H12C12.2652 28 12.5196 27.8947 12.7071 27.7071C12.8947 27.5196 13 27.2652 13 27V21C13 20.7348 13.1054 20.4804 13.2929 20.2929C13.4805 20.1054 13.7348 20 14 20H18C18.2652 20 18.5196 20.1054 18.7071 20.2929C18.8947 20.4804 19 20.7348 19 21V27C19 27.2652 19.1054 27.5196 19.2929 27.7071C19.4805 27.8947 19.7348 28 20 28H26C26.3317 28.0029 26.6587 27.9212 26.95 27.7625C27.267 27.5899 27.5317 27.3352 27.7165 27.0251C27.9012 26.715 27.9991 26.361 28 26V14.4375C27.9999 14.16 27.9421 13.8856 27.8302 13.6316C27.7183 13.3777 27.5548 13.1498 27.35 12.9625Z" fill="black"/>
</svg>
