<svg width="9" height="13" viewBox="0 0 9 13" fill="none" xmlns="http://www.w3.org/2000/svg">
<path d="M4.49994 0.8125C3.31519 0.813898 2.17935 1.28516 1.3416 2.12291C0.503853 2.96066 0.0325914 4.09649 0.0311937 5.28125C0.0297747 6.24943 0.34603 7.19135 0.931444 7.9625C0.931444 7.9625 1.05332 8.12297 1.07323 8.14612L4.49994 12.1875L7.92829 8.14409C7.94616 8.12256 8.06844 7.9625 8.06844 7.9625L8.06885 7.96128C8.65397 7.19047 8.97008 6.24899 8.96869 5.28125C8.9673 4.09649 8.49603 2.96066 7.65828 2.12291C6.82053 1.28516 5.6847 0.813898 4.49994 0.8125ZM5.96244 7.3125L4.49994 6.38178L3.03744 7.3125L3.28119 5.65744L2.06244 4.53903L3.76869 4.33306L4.49994 2.84375L5.27669 4.33347L6.93744 4.53903L5.71869 5.65744L5.96244 7.3125Z" fill="#585DF9"/>
</svg>
