<svg width="29" height="30" viewBox="0 0 29 30" fill="none" xmlns="http://www.w3.org/2000/svg">
<g clip-path="url(#clip0_19_83)">
<path d="M8.15625 3.52084C8.83064 3.52084 9.49843 3.65368 10.1215 3.91175C10.7445 4.16983 11.3107 4.5481 11.7875 5.02497C12.2644 5.50184 12.6427 6.06796 12.9008 6.69102C13.1588 7.31408 13.2917 7.98187 13.2917 8.65626V13.7917H8.15625C6.79425 13.7917 5.48804 13.2506 4.52496 12.2875C3.56188 11.3245 3.02083 10.0183 3.02083 8.65626C3.02083 7.29426 3.56188 5.98805 4.52496 5.02497C5.48804 4.06189 6.79425 3.52084 8.15625 3.52084ZM10.875 11.375V8.65626C10.875 8.11854 10.7155 7.5929 10.4168 7.1458C10.1181 6.69871 9.69345 6.35024 9.19667 6.14446C8.69988 5.93869 8.15323 5.88485 7.62585 5.98975C7.09846 6.09465 6.61403 6.35359 6.2338 6.73381C5.85358 7.11404 5.59464 7.59847 5.48974 8.12586C5.38483 8.65324 5.43867 9.19989 5.64445 9.69668C5.85023 10.1935 6.19869 10.6181 6.64579 10.9168C7.09289 11.2156 7.61853 11.375 8.15625 11.375H10.875ZM8.15625 16.2083H13.2917V21.3438C13.2917 22.3594 12.9905 23.3523 12.4262 24.1968C11.8619 25.0414 11.0599 25.6996 10.1215 26.0883C9.18311 26.477 8.15055 26.5787 7.15438 26.3805C6.1582 26.1824 5.24316 25.6932 4.52496 24.975C3.80676 24.2568 3.31766 23.3418 3.11951 22.3456C2.92135 21.3495 3.02305 20.3169 3.41174 19.3785C3.80043 18.4401 4.45865 17.6381 5.30316 17.0738C6.14768 16.5095 7.14056 16.2083 8.15625 16.2083ZM8.15625 18.625C7.61853 18.625 7.09289 18.7845 6.64579 19.0832C6.19869 19.3819 5.85023 19.8066 5.64445 20.3033C5.43867 20.8001 5.38483 21.3468 5.48974 21.8742C5.59464 22.4015 5.85358 22.886 6.2338 23.2662C6.61403 23.6464 7.09846 23.9054 7.62585 24.0103C8.15323 24.1152 8.69988 24.0613 9.19667 23.8556C9.69345 23.6498 10.1181 23.3013 10.4168 22.8542C10.7155 22.4071 10.875 21.8815 10.875 21.3438V18.625H8.15625ZM20.8437 3.52084C22.2057 3.52084 23.512 4.06189 24.475 5.02497C25.4381 5.98805 25.9792 7.29426 25.9792 8.65626C25.9792 10.0183 25.4381 11.3245 24.475 12.2875C23.512 13.2506 22.2057 13.7917 20.8437 13.7917H15.7083V8.65626C15.7083 7.29426 16.2494 5.98805 17.2125 5.02497C18.1755 4.06189 19.4818 3.52084 20.8437 3.52084ZM20.8437 11.375C21.3815 11.375 21.9071 11.2156 22.3542 10.9168C22.8013 10.6181 23.1498 10.1935 23.3555 9.69668C23.5613 9.19989 23.6152 8.65324 23.5103 8.12586C23.4054 7.59847 23.1464 7.11404 22.7662 6.73381C22.386 6.35359 21.9015 6.09465 21.3741 5.98975C20.8468 5.88485 20.3001 5.93869 19.8033 6.14446C19.3065 6.35024 18.8819 6.69871 18.5832 7.1458C18.2844 7.5929 18.125 8.11854 18.125 8.65626V11.375H20.8437ZM15.7083 16.2083H20.8437C21.8594 16.2083 22.8523 16.5095 23.6968 17.0738C24.5413 17.6381 25.1996 18.4401 25.5883 19.3785C25.9769 20.3169 26.0786 21.3495 25.8805 22.3456C25.6823 23.3418 25.1932 24.2568 24.475 24.975C23.7568 25.6932 22.8418 26.1824 21.8456 26.3805C20.8494 26.5787 19.8169 26.477 18.8785 26.0883C17.9401 25.6996 17.1381 25.0414 16.5738 24.1968C16.0095 23.3523 15.7083 22.3594 15.7083 21.3438V16.2083ZM18.125 18.625V21.3438C18.125 21.8815 18.2844 22.4071 18.5832 22.8542C18.8819 23.3013 19.3065 23.6498 19.8033 23.8556C20.3001 24.0613 20.8468 24.1152 21.3741 24.0103C21.9015 23.9054 22.386 23.6464 22.7662 23.2662C23.1464 22.886 23.4054 22.4015 23.5103 21.8742C23.6152 21.3468 23.5613 20.8001 23.3555 20.3033C23.1498 19.8066 22.8013 19.3819 22.3542 19.0832C21.9071 18.7845 21.3815 18.625 20.8437 18.625H18.125Z" fill="black"/>
</g>
<defs>
<clipPath id="clip0_19_83">
<rect width="29" height="29" fill="white" transform="translate(0 0.5)"/>
</clipPath>
</defs>
</svg>
