<svg width="21" height="22" viewBox="0 0 21 22" fill="none" xmlns="http://www.w3.org/2000/svg">
<path d="M16.5 7.00177C16.5 5.41047 15.8679 3.88435 14.7426 2.75913C13.6174 1.63391 12.0913 1.00177 10.5 1.00177C8.9087 1.00177 7.38258 1.63391 6.25736 2.75913C5.13214 3.88435 4.5 5.41047 4.5 7.00177C4.5 14.0018 1.5 16.0018 1.5 16.0018H19.5C19.5 16.0018 16.5 14.0018 16.5 7.00177Z" stroke="white" stroke-width="2" stroke-linecap="round" stroke-linejoin="round"/>
<path d="M12.23 20.0018C12.0542 20.3048 11.8018 20.5564 11.4982 20.7313C11.1946 20.9062 10.8504 20.9982 10.5 20.9982C10.1496 20.9982 9.80538 20.9062 9.50176 20.7313C9.19815 20.5564 8.9458 20.3048 8.76999 20.0018" stroke="white" stroke-width="2" stroke-linecap="round" stroke-linejoin="round"/>
</svg>
