<svg width="20" height="20" viewBox="0 0 20 20" fill="none" xmlns="http://www.w3.org/2000/svg">
<path d="M13.3075 16.25C13.1025 17.8943 11.6998 19.1667 9.99995 19.1667C8.30011 19.1667 6.89744 17.8943 6.6924 16.25H3.36564C2.44517 16.25 1.69897 15.5038 1.69897 14.5834C1.69897 14.214 1.82166 13.8551 2.04777 13.5631L3.33326 11.9027V7.50004C3.33326 3.81814 6.31803 0.833374 9.99993 0.833374C13.6818 0.833374 16.6666 3.81814 16.6666 7.50004V11.9027L17.9521 13.5631C18.5156 14.2909 18.3823 15.3378 17.6545 15.9012C17.3624 16.1274 17.0036 16.25 16.6342 16.25H13.3075ZM11.6141 16.25H8.38579C8.5708 16.9689 9.22335 17.5 9.99995 17.5C10.7765 17.5 11.4291 16.9689 11.6141 16.25ZM4.99993 7.50004V12.1875C4.99993 12.3722 4.93858 12.5517 4.82553 12.6977L3.36564 14.5834H16.6342L15.1743 12.6977C15.0613 12.5517 14.9999 12.3722 14.9999 12.1875V7.50004C14.9999 4.73862 12.7614 2.50004 9.99993 2.50004C7.2385 2.50004 4.99993 4.73862 4.99993 7.50004Z" fill="#2F3542"/>
<circle cx="15.5" cy="5.5" r="3" fill="#3742FA" stroke="white"/>
</svg>
