<svg width="24" height="24" viewBox="0 0 24 24" fill="none" xmlns="http://www.w3.org/2000/svg">
<path fill-rule="evenodd" clip-rule="evenodd" d="M0 12C0 5.38327 5.38327 0 12 0C18.6167 0 24 5.38327 24 12C24 18.6167 18.6167 24 12 24C5.38327 24 0 18.6167 0 12ZM10.4913 17.209L18.2452 7.97827C18.5641 7.58725 18.51 7.01258 18.1236 6.68802C17.7372 6.36346 17.1618 6.40931 16.8317 6.79096L9.75923 15.2088L7.14635 12.3058C6.92816 12.0517 6.58949 11.9357 6.26137 12.0027C5.93325 12.0697 5.66716 12.3092 5.56605 12.6285C5.46494 12.9477 5.54469 13.2967 5.77442 13.5404L9.0975 17.2327C9.27248 17.4272 9.52181 17.5384 9.78346 17.5385H9.79904C10.0667 17.5342 10.3192 17.414 10.4913 17.209Z" fill="#FF5F5F"/>
</svg>
