<svg width="30" height="30" viewBox="0 0 30 30" fill="none" xmlns="http://www.w3.org/2000/svg">
<path fill-rule="evenodd" clip-rule="evenodd" d="M14.9997 20.9404L21.0909 15.432L22.0439 14.4055C22.6561 13.7464 23 12.8524 23 11.9201C23 10.9879 22.6561 10.0938 22.0439 9.43477C21.4314 8.7747 20.6014 8.40425 19.7359 8.40425C18.8704 8.40425 18.0403 8.7747 17.4282 9.43441L14.9997 12.0501L12.5713 9.43441C11.2968 8.0616 9.23041 8.0616 7.95589 9.43441C6.68137 10.8072 6.68137 13.033 7.95589 14.4058L8.90855 15.432L14.9997 20.9404ZM14.9997 9.00355L16.0157 7.90925C17.0025 6.84685 18.3406 6.25 19.7359 6.25C21.132 6.25 22.4709 6.84755 23.4578 7.91113C24.4452 8.97421 25 10.4163 25 11.9201C25 13.4239 24.4452 14.866 23.4578 15.9291L22.4436 17.0215L15.0062 23.7475C15.0025 23.7508 7.55588 17.0215 7.55588 17.0215L6.54168 15.9291C4.48611 13.715 4.48611 10.1252 6.54168 7.91113C8.59724 5.69703 11.93 5.69703 13.9855 7.91113L14.9997 9.00355Z" fill="#222B45"/>
<mask id="mask0_2_71" style="mask-type:luminance" maskUnits="userSpaceOnUse" x="5" y="6" width="20" height="18">
<path fill-rule="evenodd" clip-rule="evenodd" d="M14.9997 20.9404L21.0909 15.432L22.0439 14.4055C22.6561 13.7464 23 12.8524 23 11.9201C23 10.9879 22.6561 10.0938 22.0439 9.43477C21.4314 8.7747 20.6014 8.40425 19.7359 8.40425C18.8704 8.40425 18.0403 8.7747 17.4282 9.43441L14.9997 12.0501L12.5713 9.43441C11.2968 8.0616 9.23041 8.0616 7.95589 9.43441C6.68137 10.8072 6.68137 13.033 7.95589 14.4058L8.90855 15.432L14.9997 20.9404ZM14.9997 9.00355L16.0157 7.90925C17.0025 6.84685 18.3406 6.25 19.7359 6.25C21.132 6.25 22.4709 6.84755 23.4578 7.91113C24.4452 8.97421 25 10.4163 25 11.9201C25 13.4239 24.4452 14.866 23.4578 15.9291L22.4436 17.0215L15.0062 23.7475C15.0025 23.7508 7.55588 17.0215 7.55588 17.0215L6.54168 15.9291C4.48611 13.715 4.48611 10.1252 6.54168 7.91113C8.59724 5.69703 11.93 5.69703 13.9855 7.91113L14.9997 9.00355Z" fill="white"/>
</mask>
<g mask="url(#mask0_2_71)">
</g>
</svg>
