<svg width="30" height="30" viewBox="0 0 30 30" fill="none" xmlns="http://www.w3.org/2000/svg">
<path fill-rule="evenodd" clip-rule="evenodd" d="M22 5H8C6.34315 5 5 6.41384 5 8.15789V23.9474C5.00062 24.3271 5.19551 24.6771 5.51 24.8632C5.65946 24.9523 5.82821 24.9994 6 25C6.17948 24.9999 6.35564 24.949 6.51 24.8526L11 21.9895C11.166 21.8855 11.357 21.8343 11.55 21.8421H22C23.6569 21.8421 25 20.4283 25 18.6842V8.15789C25 6.41384 23.6569 5 22 5ZM23 18.6842C23 19.2656 22.5523 19.7368 22 19.7368H11.55C11.0038 19.7364 10.4679 19.8929 10 20.1895L7 22.0842V8.15789C7 7.57654 7.44772 7.10526 8 7.10526H22C22.5523 7.10526 23 7.57654 23 8.15789V18.6842ZM15 14.4737C15.5523 14.4737 16 14.0024 16 13.4211C16 12.8397 15.5523 12.3684 15 12.3684C14.4477 12.3684 14 12.8397 14 13.4211C14 14.0024 14.4477 14.4737 15 14.4737ZM20 13.4211C20 14.0024 19.5523 14.4737 19 14.4737C18.4477 14.4737 18 14.0024 18 13.4211C18 12.8397 18.4477 12.3684 19 12.3684C19.5523 12.3684 20 12.8397 20 13.4211ZM11 14.4737C11.5523 14.4737 12 14.0024 12 13.4211C12 12.8397 11.5523 12.3684 11 12.3684C10.4477 12.3684 10 12.8397 10 13.4211C10 14.0024 10.4477 14.4737 11 14.4737Z" fill="#C5CEE0"/>
</svg>
