<svg width="7" height="8" viewBox="0 0 7 8" fill="none" xmlns="http://www.w3.org/2000/svg">
<path fill-rule="evenodd" clip-rule="evenodd" d="M3.15976 7.98345C3.15976 7.98345 6.31951 5.94077 6.31951 3.55766C6.31951 2.74503 5.98661 1.96569 5.39404 1.39108C4.80147 0.816466 3.99778 0.493652 3.15976 0.493652C2.32174 0.493652 1.51804 0.816466 0.925471 1.39108C0.332902 1.96569 0 2.74503 0 3.55766C0 5.94077 3.15976 7.98345 3.15976 7.98345ZM4.21295 3.55698C4.21295 4.12105 3.74139 4.57832 3.1597 4.57832C2.578 4.57832 2.10645 4.12105 2.10645 3.55698C2.10645 2.99291 2.578 2.53564 3.1597 2.53564C3.74139 2.53564 4.21295 2.99291 4.21295 3.55698Z" fill="#FF9635"/>
</svg>
