<svg width="12" height="15" viewBox="0 0 12 15" fill="none" xmlns="http://www.w3.org/2000/svg">
<path d="M5.84376 0.0632324C4.29446 0.0650602 2.80914 0.681326 1.71362 1.77685C0.6181 2.87237 0.00183397 4.35769 6.21716e-06 5.90698C-0.00184938 7.17307 0.411715 8.40481 1.17726 9.41323C1.17726 9.41323 1.33663 9.62308 1.36266 9.65336L5.84376 14.9382L10.327 9.6507C10.3503 9.62255 10.5103 9.41323 10.5103 9.41323L10.5108 9.41164C11.2759 8.40365 11.6893 7.17249 11.6875 5.90698C11.6857 4.35769 11.0694 2.87237 9.97389 1.77685C8.87837 0.681326 7.39305 0.0650602 5.84376 0.0632324ZM7.75626 8.56323L5.84376 7.34614L3.93126 8.56323L4.25001 6.39892L2.65626 4.93639L4.88751 4.66705L5.84376 2.71948L6.85951 4.66758L9.03125 4.93639L7.43751 6.39892L7.75626 8.56323Z" fill="white"/>
</svg>
