<svg width="18" height="21" viewBox="0 0 18 21" fill="none" xmlns="http://www.w3.org/2000/svg">
<path d="M9 11C10.1935 11 11.3381 10.5259 12.182 9.68198C13.0259 8.83807 13.5 7.69347 13.5 6.5C13.5 5.30653 13.0259 4.16193 12.182 3.31802C11.3381 2.47411 10.1935 2 9 2C7.80653 2 6.66193 2.47411 5.81802 3.31802C4.97411 4.16193 4.5 5.30653 4.5 6.5C4.5 7.69347 4.97411 8.83807 5.81802 9.68198C6.66193 10.5259 7.80653 11 9 11ZM9 12.5C7.4087 12.5 5.88258 11.8679 4.75736 10.7426C3.63214 9.61742 3 8.0913 3 6.5C3 4.9087 3.63214 3.38258 4.75736 2.25736C5.88258 1.13214 7.4087 0.5 9 0.5C10.5913 0.5 12.1174 1.13214 13.2426 2.25736C14.3679 3.38258 15 4.9087 15 6.5C15 8.0913 14.3679 9.61742 13.2426 10.7426C12.1174 11.8679 10.5913 12.5 9 12.5ZM16.5 20V17.75C16.5 17.1533 16.2629 16.581 15.841 16.159C15.419 15.7371 14.8467 15.5 14.25 15.5H3.75C3.15326 15.5 2.58097 15.7371 2.15901 16.159C1.73705 16.581 1.5 17.1533 1.5 17.75V20C1.5 20.1989 1.42098 20.3897 1.28033 20.5303C1.13968 20.671 0.948912 20.75 0.75 20.75C0.551088 20.75 0.360322 20.671 0.21967 20.5303C0.0790178 20.3897 0 20.1989 0 20V17.75C0 16.7554 0.395088 15.8016 1.09835 15.0983C1.80161 14.3951 2.75544 14 3.75 14H14.25C15.2446 14 16.1984 14.3951 16.9016 15.0983C17.6049 15.8016 18 16.7554 18 17.75V20C18 20.1989 17.921 20.3897 17.7803 20.5303C17.6397 20.671 17.4489 20.75 17.25 20.75C17.0511 20.75 16.8603 20.671 16.7197 20.5303C16.579 20.3897 16.5 20.1989 16.5 20Z" fill="black" fill-opacity="0.5"/>
</svg>
