<svg width="105" height="34" viewBox="0 0 105 34" fill="none" xmlns="http://www.w3.org/2000/svg">
<path d="M11.7704 33.4467C8.64812 33.3356 6.09364 32.5701 4.09625 31.1484C3.71505 30.8768 2.8067 30.0625 2.50196 29.7191C1.69199 28.8066 1.14132 27.9185 0.774026 26.9332C-0.356192 23.9001 0.22549 19.92 2.43781 15.5519C4.33202 11.8123 7.25487 8.10338 12.3542 2.96651C13.1054 2.21063 15.3423 0 15.3567 0C15.3621 0 15.2402 0.189211 15.0867 0.419614C13.7608 2.40941 12.6263 4.75319 12.0083 6.78227C11.0155 10.0381 11.1352 12.8321 12.359 14.9987C13.2032 16.4913 14.6505 17.7841 16.2779 18.4988C19.127 19.7495 23.2982 19.853 28.3922 18.8015C28.7429 18.7287 46.1217 14.5954 67.0121 9.61609C87.9024 4.63632 104.997 0.565235 105 0.568588C105.006 0.572899 56.4659 19.1824 31.268 28.8368C27.2775 30.3653 26.2103 30.7513 24.3343 31.3415C19.5386 32.8504 15.2428 33.5703 11.7704 33.4467Z" fill="black"/>
</svg>
