<svg width="20" height="20" viewBox="0 0 20 20" fill="none" xmlns="http://www.w3.org/2000/svg">
<path fill-rule="evenodd" clip-rule="evenodd" d="M0 10.015C0 4.74712 4.21 0 10.02 0C15.7 0 20 4.65699 20 9.985C20 16.1642 14.96 20 10 20C8.36 20 6.54 19.5593 5.08 18.698C4.57 18.3876 4.14 18.1572 3.59 18.3375L1.57 18.9384C1.06 19.0986 0.6 18.698 0.75 18.1572L1.42 15.9139C1.53 15.6034 1.51 15.2729 1.35 15.0125C0.49 13.4301 0 11.6975 0 10.015ZM8.7 10.015C8.7 10.7261 9.27 11.2969 9.98 11.307C10.69 11.307 11.26 10.7261 11.26 10.025C11.26 9.314 10.69 8.7431 9.98 8.7431C9.28 8.7331 8.7 9.314 8.7 10.015ZM13.31 10.025C13.31 10.7261 13.88 11.307 14.59 11.307C15.3 11.307 15.87 10.7261 15.87 10.025C15.87 9.314 15.3 8.7431 14.59 8.7431C13.88 8.7431 13.31 9.314 13.31 10.025ZM5.37 11.307C4.67 11.307 4.09 10.7261 4.09 10.025C4.09 9.314 4.66 8.7431 5.37 8.7431C6.08 8.7431 6.65 9.314 6.65 10.025C6.65 10.7261 6.08 11.2969 5.37 11.307Z" fill="#2F3542"/>
</svg>
